<?xml version="1.0" encoding="utf-8"?>
<!-- Generator: Adobe Illustrator 25.2.0, SVG Export Plug-In . SVG Version: 6.00 Build 0)  -->
<svg version="1.1" id="Capa_1" xmlns="http://www.w3.org/2000/svg" xmlns:xlink="http://www.w3.org/1999/xlink" x="0px" y="0px"
	 viewBox="0 0 512 512" style="enable-background:new 0 0 512 512;" xml:space="preserve">
<style type="text/css">
	.st0{fill:#FFFFFF;}
</style>
<g>
	<path class="st0" d="M475.1,20.2h-20.8c-2.4,0-4.4,1.9-4.4,4.4s1.9,4.4,4.4,4.4h20.8c4.1,0,7.4,3.3,7.4,7.4v20.8
		c0,2.4,1.9,4.4,4.4,4.4s4.4-1.9,4.4-4.4V36.3C491.2,27.5,484,20.2,475.1,20.2z"/>
	<path class="st0" d="M25.2,61.5c2.4,0,4.4-1.9,4.4-4.4V36.3c0-4.1,3.3-7.4,7.4-7.4h20.8c2.4,0,4.4-1.9,4.4-4.4s-1.9-4.4-4.4-4.4
		H36.9c-8.9,0-16.1,7.2-16.1,16.1v20.8C20.8,59.6,22.8,61.5,25.2,61.5z"/>
	<path class="st0" d="M57.8,483H36.9c-4.1,0-7.4-3.3-7.4-7.4v-20.8c0-2.4-1.9-4.4-4.4-4.4s-4.4,1.9-4.4,4.4v20.8
		c0,8.9,7.2,16.1,16.1,16.1h20.8c2.4,0,4.4-1.9,4.4-4.4S60.2,483,57.8,483z"/>
	<path class="st0" d="M486.8,450.5c-2.4,0-4.4,1.9-4.4,4.4v20.8c0,4.1-3.3,7.4-7.4,7.4h-20.8c-2.4,0-4.4,1.9-4.4,4.4
		s1.9,4.4,4.4,4.4h20.8c8.9,0,16.1-7.2,16.1-16.1v-20.8C491.2,452.4,489.2,450.5,486.8,450.5z"/>
</g>
</svg>
